<?xml version="1.0" encoding="utf-8"?>
<!-- Generator: Adobe Illustrator 16.0.0, SVG Export Plug-In . SVG Version: 6.00 Build 0)  -->
<!DOCTYPE svg PUBLIC "-//W3C//DTD SVG 1.1//EN" "http://www.w3.org/Graphics/SVG/1.1/DTD/svg11.dtd">
<svg version="1.1" id="Capa_1" xmlns="http://www.w3.org/2000/svg" xmlns:xlink="http://www.w3.org/1999/xlink" x="0px" y="0px"
	 width="80px" height="60px" viewBox="0 0 80 60" enable-background="new 0 0 80 60" xml:space="preserve">
<circle fill-rule="evenodd" clip-rule="evenodd" fill="#425F9C" cx="20" cy="45" r="12.476"/>
<circle fill-rule="evenodd" clip-rule="evenodd" fill="#43BCEB" cx="60" cy="45" r="12.476"/>
<g>
	<path fill-rule="evenodd" clip-rule="evenodd" fill="none" stroke="#FFFFFF" stroke-miterlimit="10" d="M20,2.5
		c6.903,0,12.5,5.596,12.5,12.5S26.903,27.5,20,27.5S7.5,21.904,7.5,15S13.097,2.5,20,2.5L20,2.5z"/>
	<path fill-rule="evenodd" clip-rule="evenodd" fill="#FFFFFF" d="M21.167,12.5v-1.609c0-0.576-0.014-0.391,0.256-0.391
		c0.272,0,1.744,0,1.744,0V7.645l-2.087-0.01c-2.537,0-2.913,1.891-2.913,3.102V12.5h-2v1.363V15.5h2c0,3,0,7,0,7h3c0,0,0-4,0-7
		h1.685l0.108-1.181l0.164-1.819H21.167z"/>
</g>
<g>
	<path fill-rule="evenodd" clip-rule="evenodd" fill="none" stroke="#FFFFFF" stroke-miterlimit="10" d="M59.998,2.502
		c6.902,0,12.5,5.596,12.5,12.5s-5.598,12.496-12.5,12.496s-12.496-5.592-12.496-12.496S53.096,2.502,59.998,2.502L59.998,2.502z"/>
	<path fill-rule="evenodd" clip-rule="evenodd" fill="#FFFFFF" d="M67.402,10.48c-0.545,0.238-1.129,0.398-1.742,0.469
		c0.627-0.367,1.109-0.955,1.334-1.652c-0.586,0.342-1.236,0.592-1.93,0.725c-0.551-0.58-1.34-0.943-2.215-0.943
		c-1.678,0-3.039,1.34-3.039,2.99c0,0.236,0.027,0.463,0.078,0.682c-2.523-0.127-4.762-1.316-6.26-3.123
		c-0.262,0.439-0.412,0.955-0.412,1.504c0,1.035,0.692,1.949,1.505,2.486c-0.496-0.018-1.222-0.15-1.222-0.375
		c0,0.014,0,0.027,0,0.037c0,0.387-0.077,0.75,0.054,1.086c0.371,0.936,1.128,1.645,2.153,1.848
		c-0.258,0.068-0.563,0.105-0.839,0.105c-0.197,0-0.407-0.02-0.591-0.055c0.385,1.188,1.498,2.053,2.828,2.076
		c-1.041,0.803-2.356,1.283-3.778,1.283c-0.248,0-0.489-0.014-0.729-0.045c1.346,0.85,2.94,1.344,4.655,1.344
		c4.75,0,7.67-3.289,8.439-6.703c0.135-0.602,0.206-1.211,0.206-1.803c0-0.129-0.004-0.26-0.01-0.389
		C66.484,11.605,66.998,11.078,67.402,10.48L67.402,10.48z"/>
</g>
<g>
	<path fill-rule="evenodd" clip-rule="evenodd" fill="none" stroke="#FFFFFF" stroke-miterlimit="10" d="M20,32.5
		c6.903,0,12.5,5.596,12.5,12.5S26.903,57.5,20,57.5S7.5,51.904,7.5,45S13.097,32.5,20,32.5L20,32.5z"/>
	<path fill-rule="evenodd" clip-rule="evenodd" fill="#FFFFFF" d="M21.167,42.5v-1.609c0-0.576-0.014-0.391,0.256-0.391
		c0.272,0,1.744,0,1.744,0v-2.855l-2.087-0.01c-2.537,0-2.913,1.891-2.913,3.102V42.5h-2v1.363V45.5h2c0,3,0,7,0,7h3c0,0,0-4,0-7
		h1.685l0.108-1.181l0.164-1.819H21.167z"/>
</g>
<g>
	<path fill-rule="evenodd" clip-rule="evenodd" fill="none" stroke="#FFFFFF" stroke-miterlimit="10" d="M59.998,32.502
		c6.902,0,12.5,5.596,12.5,12.5s-5.598,12.496-12.5,12.496s-12.496-5.592-12.496-12.496S53.096,32.502,59.998,32.502L59.998,32.502z
		"/>
	<path fill-rule="evenodd" clip-rule="evenodd" fill="#FFFFFF" d="M67.402,40.48c-0.545,0.238-1.129,0.398-1.742,0.469
		c0.627-0.367,1.109-0.955,1.334-1.652c-0.586,0.342-1.236,0.592-1.93,0.725c-0.551-0.58-1.34-0.943-2.215-0.943
		c-1.678,0-3.039,1.34-3.039,2.99c0,0.236,0.027,0.463,0.078,0.682c-2.523-0.127-4.762-1.316-6.26-3.123
		c-0.262,0.439-0.412,0.955-0.412,1.504c0,1.035,0.692,1.949,1.505,2.486c-0.496-0.018-1.222-0.15-1.222-0.375
		c0,0.014,0,0.027,0,0.037c0,0.387-0.077,0.75,0.054,1.086c0.371,0.936,1.128,1.645,2.153,1.848
		c-0.258,0.068-0.563,0.105-0.839,0.105c-0.197,0-0.407-0.02-0.591-0.055c0.385,1.188,1.498,2.053,2.828,2.076
		c-1.041,0.803-2.356,1.283-3.778,1.283c-0.248,0-0.489-0.014-0.729-0.045c1.346,0.85,2.94,1.344,4.655,1.344
		c4.75,0,7.67-3.289,8.439-6.703c0.135-0.602,0.206-1.211,0.206-1.803c0-0.129-0.004-0.26-0.01-0.389
		C66.484,41.605,66.998,41.078,67.402,40.48L67.402,40.48z"/>
</g>
<g>
</g>
<g>
</g>
<g>
</g>
<g>
</g>
<g>
</g>
<g>
</g>
<g>
</g>
<g>
</g>
<g>
</g>
<g>
</g>
<g>
</g>
<g>
</g>
<g>
</g>
<g>
</g>
<g>
</g>
</svg>
